<?xml version="1.0" encoding="UTF-8" standalone="no"?>
<svg
   xmlns:dc="http://purl.org/dc/elements/1.1/"
   xmlns:cc="http://creativecommons.org/ns#"
   xmlns:rdf="http://www.w3.org/1999/02/22-rdf-syntax-ns#"
   xmlns:svg="http://www.w3.org/2000/svg"
   xmlns="http://www.w3.org/2000/svg"
   xmlns:sodipodi="http://sodipodi.sourceforge.net/DTD/sodipodi-0.dtd"
   xmlns:inkscape="http://www.inkscape.org/namespaces/inkscape"
   version="1.1"
   width="32.466999"
   height="32.46701"
   viewBox="0 0 32.466999 32.46701"
   id="svg6"
   sodipodi:docname="jamstack.club-logo.svg"
   inkscape:version="0.92.4 (5da689c313, 2019-01-14)">
  <metadata
     id="metadata12">
    <rdf:RDF>
      <cc:Work
         rdf:about="">
        <dc:format>image/svg+xml</dc:format>
        <dc:type
           rdf:resource="http://purl.org/dc/dcmitype/StillImage" />
        <dc:title>jamstack-2</dc:title>
      </cc:Work>
    </rdf:RDF>
  </metadata>
  <defs
     id="defs10" />
  <sodipodi:namedview
     pagecolor="#ffffff"
     bordercolor="#666666"
     borderopacity="1"
     objecttolerance="10"
     gridtolerance="10"
     guidetolerance="10"
     inkscape:pageopacity="0"
     inkscape:pageshadow="2"
     inkscape:window-width="1920"
     inkscape:window-height="1043"
     id="namedview8"
     showgrid="false"
     inkscape:zoom="14.75"
     inkscape:cx="14.919178"
     inkscape:cy="8.5993493"
     inkscape:window-x="0"
     inkscape:window-y="0"
     inkscape:window-maximized="1"
     inkscape:current-layer="svg6" />
  <title
     id="title2">jamstack-2</title>
  <path
     d="M 12.855,0.78500953 C 9.975,1.4070095 7.397,2.8470095 5.122,5.1230095 1.958,8.2870095 0.5,11.80701 0.5,16.23401 c 0,4.142 1.387,7.716 4.16,10.702 3.076,3.307 7.04,5.031 11.591,5.031 7.609,0 13.991,-5.262 15.467,-12.764 0.196,-1.031 0.249,-3.182 0.249,-10.0090005 V 0.50100953 l -8.924,0.018 c -7.182,0 -9.191,0.071 -10.187,0.267 z M 27.699,10.19001 v 5.422 H 16.855 V 4.7680095 h 10.844 z m -12.089,12.089 c 0,3.644 -0.053,5.422 -0.178,5.422 -0.107,0 -0.818,-0.124 -1.564,-0.284 -3.413,-0.693 -6.382,-3.022 -8.018,-6.258 -0.427,-0.836 -1.084,-3.2 -1.084,-3.893 v -0.409 H 15.61 Z m 12,-4.587 c -0.622,4.302 -3.644,8.018 -7.68,9.369 -0.658,0.231 -1.636,0.48 -2.133,0.551 l -0.942,0.124 v -10.88 h 10.862 z"
     id="path4"
     style="fill:#4ccaf0;fill-opacity:1;stroke:#4ccaf0;stroke-opacity:0"
     inkscape:connector-curvature="0" />
</svg>
