<?xml version="1.0" standalone="no"?>
<!DOCTYPE svg PUBLIC "-//W3C//DTD SVG 20010904//EN"
 "http://www.w3.org/TR/2001/REC-SVG-20010904/DTD/svg10.dtd">
<svg version="1.0" xmlns="http://www.w3.org/2000/svg"
 width="700.000000pt" height="700.000000pt" viewBox="0 0 700.000000 700.000000"
 preserveAspectRatio="xMidYMid meet">
<metadata>
Created by potrace 1.14, written by Peter Selinger 2001-2017
</metadata>
<g transform="translate(0.000000,700.000000) scale(0.100000,-0.100000)"
fill="#000000" stroke="none">
<path d="M6824 6894 c-5 -2 -747 -5 -1649 -8 -1574 -5 -1793 -7 -2060 -21
-124 -7 -135 -8 -245 -20 -63 -7 -203 -36 -265 -55 -214 -67 -263 -82 -280
-90 -11 -5 -65 -27 -120 -50 -105 -44 -107 -44 -225 -105 -181 -93 -449 -270
-577 -380 -6 -5 -33 -28 -60 -50 -67 -55 -142 -125 -242 -225 -586 -585 -899
-1233 -978 -2025 -10 -104 -10 -618 0 -715 40 -374 130 -735 247 -987 11 -24
20 -45 20 -49 0 -3 27 -60 61 -127 114 -227 258 -446 428 -652 87 -105 325
-345 427 -432 97 -82 271 -213 283 -213 5 0 11 -3 13 -7 5 -12 104 -78 148
-99 8 -5 38 -22 65 -40 209 -133 693 -317 945 -360 14 -3 48 -9 75 -14 28 -6
61 -12 75 -15 14 -3 50 -8 80 -11 30 -3 62 -7 70 -9 13 -4 93 -11 215 -21 56
-4 390 -4 450 1 73 5 198 17 215 20 8 1 40 6 70 10 30 4 64 9 75 11 11 3 36 7
55 10 37 6 224 49 275 64 137 38 230 69 350 117 140 55 376 169 427 204 14 11
29 19 32 19 23 0 348 226 449 312 225 193 375 351 542 573 226 301 398 633
515 990 43 134 104 371 114 445 41 311 45 532 46 2490 0 811 1 1482 0 1491 0
15 -41 29 -66 23z m-858 -927 c6 -6 6 -2316 0 -2325 -3 -4 -528 -8 -1168 -7
l-1163 0 0 1167 -1 1167 51 3 c74 4 2277 0 2281 -5z m-2605 -2610 c7 -10 3
-1876 -5 -2058 -6 -144 -15 -249 -22 -261 -3 -4 -14 -8 -26 -8 -34 0 -382 69
-453 91 -119 35 -174 53 -202 65 -17 8 -36 14 -42 14 -19 0 -223 97 -326 155
-341 193 -664 499 -879 835 -83 130 -80 124 -129 220 -74 141 -169 436 -222
685 -21 99 -28 169 -26 245 l1 26 1163 0 c639 0 1165 -4 1168 -9z m2612 -3
c-1 -6 -4 -33 -7 -60 -23 -231 -93 -507 -181 -714 -289 -685 -821 -1187 -1503
-1419 -118 -40 -380 -107 -452 -115 -30 -4 -68 -8 -85 -11 -16 -2 -48 -7 -70
-9 l-41 -5 2 1167 c0 642 2 1169 3 1172 2 11 2336 5 2334 -6z"/>
</g>
</svg>
