<?xml version="1.0" standalone="no"?>
<!DOCTYPE svg PUBLIC "-//W3C//DTD SVG 20010904//EN"
 "http://www.w3.org/TR/2001/REC-SVG-20010904/DTD/svg10.dtd">
<svg version="1.0" xmlns="http://www.w3.org/2000/svg"
 width="736.000000pt" height="736.000000pt" viewBox="0 0 736.000000 736.000000"
 preserveAspectRatio="xMidYMid meet">
<metadata>
Created by potrace 1.14, written by Peter Selinger 2001-2017
</metadata>
<g transform="translate(0.000000,736.000000) scale(0.100000,-0.100000)"
fill="#000000" stroke="none">
<path d="M3576 6203 c-1 -1 -74 -5 -161 -8 -204 -7 -314 -17 -390 -37 -22 -6
-51 -12 -64 -15 -31 -5 -253 -79 -306 -101 -195 -81 -437 -228 -617 -373 -89
-72 -306 -281 -353 -340 -11 -13 -40 -49 -65 -79 -94 -114 -212 -287 -259
-380 -12 -25 -26 -52 -31 -60 -10 -16 -80 -169 -80 -175 0 -2 -5 -16 -12 -32
-6 -15 -12 -30 -13 -33 0 -3 -11 -34 -22 -70 -23 -68 -62 -210 -68 -245 -2
-11 -6 -38 -10 -60 -3 -22 -8 -49 -10 -60 -4 -25 -12 -82 -22 -165 -4 -36 -7
-159 -7 -275 0 -214 6 -312 29 -440 4 -22 8 -49 10 -60 8 -53 56 -239 80 -310
124 -367 323 -686 609 -970 303 -301 604 -489 988 -615 50 -17 101 -32 112
-34 12 -2 28 -7 36 -10 8 -3 26 -8 40 -10 14 -3 36 -8 50 -11 14 -3 50 -10 80
-15 30 -5 73 -12 95 -15 76 -13 281 -29 365 -28 87 0 321 12 328 17 4 2 32 7
63 10 31 4 67 9 80 12 13 3 35 7 49 9 14 2 64 13 110 25 47 12 92 24 100 25 8
2 16 4 18 5 1 2 5 3 10 4 61 16 227 78 308 116 38 18 83 39 99 46 17 8 37 18
45 24 8 5 49 28 90 52 41 23 77 46 78 50 2 5 8 8 13 8 15 0 173 116 261 191
204 175 405 409 506 589 14 25 28 47 31 50 14 12 111 202 111 217 0 7 5 13 10
13 6 0 10 7 10 15 0 8 9 34 19 57 39 86 50 115 80 213 25 82 50 171 56 195 53
232 57 350 59 1893 l2 1199 -1269 -3 c-697 -2 -1269 -5 -1271 -6z m1855 -701
c1 -35 1 -1637 0 -1678 l-1 -30 -865 0 c-778 0 -865 1 -866 15 -1 21 -1 1669
0 1698 l1 23 865 0 865 0 1 -28z m-1949 -1911 c16 -1 17 -53 13 -793 -4 -678
-6 -840 -17 -926 -1 -11 -42 -10 -113 4 -11 2 -33 7 -50 9 -16 3 -37 8 -45 10
-8 2 -28 7 -45 10 -54 9 -69 13 -130 31 -33 10 -62 18 -65 19 -8 1 -102 36
-140 52 -64 27 -215 105 -231 119 -8 8 -19 14 -22 14 -10 0 -146 96 -202 142
-55 46 -206 195 -245 243 -14 17 -41 50 -60 75 -19 25 -37 47 -40 50 -10 9
-115 183 -147 245 -17 33 -41 89 -53 125 -12 36 -25 74 -30 85 -5 11 -12 34
-16 50 -10 40 -11 45 -14 48 -1 1 -3 9 -5 17 -3 14 -21 89 -29 120 -28 105
-42 240 -27 250 7 4 1652 5 1713 1z m1941 0 c10 0 16 -5 13 -10 -3 -5 -8 -29
-10 -55 -8 -78 -28 -186 -47 -261 -19 -71 -61 -199 -82 -245 -44 -100 -135
-279 -148 -290 -3 -3 -16 -23 -29 -44 -73 -121 -236 -299 -386 -425 -97 -81
-239 -168 -382 -233 -81 -38 -293 -111 -349 -122 -15 -3 -46 -10 -68 -15 -46
-11 -98 -19 -170 -27 -27 -3 -53 -8 -57 -11 -5 -2 -8 -1 -9 4 -1 11 -1 1692 0
1718 1 20 7 20 853 19 469 -1 861 -2 871 -3z"/>
</g>
</svg>
